<?xml version="1.0" encoding="utf-8"?>
<!-- Generator: Adobe Illustrator 18.1.1, SVG Export Plug-In . SVG Version: 6.00 Build 0)  -->
<svg version="1.1" xmlns="http://www.w3.org/2000/svg" xmlns:xlink="http://www.w3.org/1999/xlink" x="0px" y="0px"
	 viewBox="0 0 100 100" enable-background="new 0 0 100 100" xml:space="preserve">
<g id="achtergrond">
	<rect id="bg_2_" y="66.7" fill="#E0E0E0" width="100" height="33.3"/>
	<rect id="lijn_3_" y="99.3" fill="#FFFFFF" width="100" height="0.7"/>
	<rect id="bg" y="33.3" fill="#E0E0E0" width="100" height="33.3"/>
	<rect id="lijn_1_" y="65.9" fill="#FFFFFF" width="100" height="1.4"/>
	<rect id="bg_1_" fill="#E0E0E0" width="100" height="33.3"/>
	<rect id="lijn_2_" y="32.6" fill="#FFFFFF" width="100" height="1.4"/>
	<rect id="lijn" fill="#FFFFFF" width="100" height="0.9"/>
</g>
<g id="laag-hoog_lichtgrijs" display="none">
	<rect id="_x31__1_" x="9" y="54.6" display="inline" fill="#CDCCCC" width="21.3" height="45.4"/>
	<rect id="_x32__1_" x="39.3" y="36.2" display="inline" fill="#CDCCCC" width="21.3" height="63.8"/>
	<rect id="_x33__1_" x="69.7" y="17.8" display="inline" fill="#CDCCCC" width="21.3" height="82.2"/>
</g>
<g id="laag-hoog" display="none">
	<rect id="_x31_" x="9" y="54.6" display="inline" fill="#999999" width="21.3" height="45.4"/>
	<rect id="_x32_" x="39.3" y="36.2" display="inline" fill="#999999" width="21.3" height="63.8"/>
	<rect id="_x33_" x="69.7" y="17.8" display="inline" fill="#999999" width="21.3" height="82.2"/>
</g>
<g id="stabiel">
	<rect id="_x31__2_" x="9" y="36.2" fill="#999999" width="21.3" height="63.8"/>
	<rect id="_x32__2_" x="39.3" y="36.2" fill="#999999" width="21.3" height="63.8"/>
	<rect id="_x33__2_" x="69.7" y="36.2" fill="#999999" width="21.3" height="63.8"/>
</g>
<g id="hoog-laag" display="none">
	<rect id="_x31__3_" x="9" y="17.8" display="inline" fill="#999999" width="21.3" height="82.2"/>
	<rect id="_x32__3_" x="39.3" y="36.2" display="inline" fill="#999999" width="21.3" height="63.8"/>
	<rect id="_x33__3_" x="69.7" y="54.6" display="inline" fill="#999999" width="21.3" height="45.4"/>
</g>
<g id="net_gestart" display="none">
	<rect id="_x31__4_" x="9" y="54.6" display="inline" fill="#999999" width="21.3" height="45.4"/>
</g>
</svg>
